<svg width="44" height="44" viewBox="0 0 44 44" fill="none" xmlns="http://www.w3.org/2000/svg">
<path d="M41.36 4H2.64C1.93983 4 1.26833 4.27814 0.773238 4.77324C0.278142 5.26833 0 5.93983 0 6.64V38.32C0 39.0202 0.278142 39.6917 0.773238 40.1868C1.26833 40.6819 1.93983 40.96 2.64 40.96H41.36C42.0602 40.96 42.7317 40.6819 43.2268 40.1868C43.7219 39.6917 44 39.0202 44 38.32V6.64C44 5.93983 43.7219 5.26833 43.2268 4.77324C42.7317 4.27814 42.0602 4 41.36 4ZM42.24 38.32C42.24 38.5534 42.1473 38.7772 41.9823 38.9423C41.8172 39.1073 41.5934 39.2 41.36 39.2H2.64C2.40661 39.2 2.18278 39.1073 2.01775 38.9423C1.85271 38.7772 1.76 38.5534 1.76 38.32V6.64C1.76 6.40661 1.85271 6.18278 2.01775 6.01775C2.18278 5.85271 2.40661 5.76 2.64 5.76H41.36C41.5934 5.76 41.8172 5.85271 41.9823 6.01775C42.1473 6.18278 42.24 6.40661 42.24 6.64V38.32Z" fill="#AAAFB5"/>
<path d="M38.72 8.4H5.28C5.04661 8.4 4.82278 8.49271 4.65775 8.65775C4.49271 8.82278 4.4 9.04661 4.4 9.28V35.68C4.4 35.9134 4.49271 36.1372 4.65775 36.3023C4.82278 36.4673 5.04661 36.56 5.28 36.56H38.72C38.9534 36.56 39.1772 36.4673 39.3423 36.3023C39.5073 36.1372 39.6 35.9134 39.6 35.68V9.28C39.6 9.04661 39.5073 8.82278 39.3423 8.65775C39.1772 8.49271 38.9534 8.4 38.72 8.4ZM37.84 10.16V26.88H32.9243L25.2622 19.2178C25.1149 19.0706 24.9202 18.9803 24.7127 18.963C24.5052 18.9458 24.2982 19.0027 24.1287 19.1237L18.3251 23.272L13.7887 19.1888C13.6434 19.0579 13.4586 18.9792 13.2636 18.965C13.0685 18.9508 12.8743 19.002 12.7116 19.1105L6.16 23.4762V10.16H37.84ZM6.16 34.8V28.64H13.2C13.4334 28.64 13.6572 28.5473 13.8223 28.3823C13.9873 28.2172 14.08 27.9934 14.08 27.76C14.08 27.5266 13.9873 27.3028 13.8223 27.1377C13.6572 26.9727 13.4334 26.88 13.2 26.88H6.16V25.5908L13.119 20.9514L21.4113 28.4138C21.4967 28.4938 21.5972 28.556 21.7069 28.5967C21.8166 28.6374 21.9334 28.6558 22.0503 28.6508C22.1672 28.6459 22.282 28.6176 22.3878 28.5678C22.4937 28.5179 22.5886 28.4474 22.6669 28.3605C22.7452 28.2735 22.8054 28.1718 22.8439 28.0613C22.8824 27.9508 22.8985 27.8337 22.8912 27.7169C22.8839 27.6001 22.8534 27.4859 22.8015 27.3811C22.7496 27.2762 22.6772 27.1827 22.5887 27.1062L19.6654 24.475L24.545 20.9893L30.4357 26.88H27.28C27.0466 26.88 26.8228 26.9727 26.6577 27.1377C26.4927 27.3028 26.4 27.5266 26.4 27.76C26.4 27.9934 26.4927 28.2172 26.6577 28.3823C26.8228 28.5473 27.0466 28.64 27.28 28.64H37.84V34.8H6.16Z" fill="#AAAFB5"/>
<path d="M32.56 18.96C33.2562 18.96 33.9367 18.7536 34.5156 18.3668C35.0945 17.98 35.5456 17.4302 35.8121 16.787C36.0785 16.1439 36.1482 15.4361 36.0124 14.7533C35.8765 14.0705 35.5413 13.4433 35.049 12.951C34.5567 12.4587 33.9295 12.1235 33.2467 11.9876C32.5639 11.8518 31.8561 11.9215 31.213 12.1879C30.5698 12.4544 30.02 12.9055 29.6332 13.4844C29.2464 14.0633 29.04 14.7438 29.04 15.44C29.04 16.3736 29.4109 17.2689 30.071 17.929C30.7311 18.5891 31.6264 18.96 32.56 18.96ZM32.56 13.68C32.9081 13.68 33.2484 13.7832 33.5378 13.9766C33.8272 14.17 34.0528 14.4449 34.186 14.7665C34.3192 15.0881 34.3541 15.442 34.2862 15.7834C34.2183 16.1248 34.0506 16.4384 33.8045 16.6845C33.5584 16.9306 33.2448 17.0983 32.9034 17.1662C32.562 17.2341 32.2081 17.1992 31.8865 17.066C31.5649 16.9328 31.29 16.7072 31.0966 16.4178C30.9032 16.1284 30.8 15.7881 30.8 15.44C30.8 14.9732 30.9854 14.5256 31.3155 14.1955C31.6456 13.8654 32.0932 13.68 32.56 13.68Z" fill="#AAAFB5"/>
</svg>
