<svg width="44" height="44" viewBox="0 0 44 44" fill="none" xmlns="http://www.w3.org/2000/svg">
<path d="M22 23.76C20.9557 23.76 19.9349 24.0697 19.0666 24.6498C18.1983 25.23 17.5215 26.0546 17.1219 27.0194C16.7223 27.9842 16.6177 29.0459 16.8215 30.0701C17.0252 31.0943 17.5281 32.0351 18.2665 32.7735C19.0049 33.5119 19.9457 34.0148 20.9699 34.2185C21.9941 34.4223 23.0558 34.3177 24.0206 33.9181C24.9854 33.5185 25.81 32.8417 26.3902 31.9734C26.9703 31.1051 27.28 30.0843 27.28 29.04C27.2786 27.6401 26.7219 26.2979 25.732 25.308C24.7421 24.3181 23.3999 23.7614 22 23.76ZM22 32.56C21.3038 32.56 20.6233 32.3536 20.0444 31.9668C19.4655 31.58 19.0144 31.0302 18.7479 30.387C18.4815 29.7439 18.4118 29.0361 18.5476 28.3533C18.6835 27.6705 19.0187 27.0433 19.511 26.551C20.0033 26.0587 20.6305 25.7235 21.3133 25.5876C21.9961 25.4518 22.7038 25.5215 23.347 25.7879C23.9902 26.0544 24.54 26.5055 24.9268 27.0844C25.3136 27.6633 25.52 28.3438 25.52 29.04C25.52 29.9736 25.1491 30.8689 24.489 31.529C23.8289 32.1891 22.9336 32.56 22 32.56Z" fill="#AAAFB5"/>
<path d="M41.36 0H2.64C1.93983 0 1.26833 0.278142 0.773238 0.773238C0.278142 1.26833 0 1.93983 0 2.64V27.28C0 27.9802 0.278142 28.6517 0.773238 29.1468C1.26833 29.6419 1.93983 29.92 2.64 29.92H10.6084C10.6454 30.4275 10.7163 30.932 10.8205 31.4301L8.04672 33.0317C7.84493 33.1482 7.69761 33.34 7.63707 33.5651C7.57652 33.7901 7.6077 34.0299 7.72376 34.232L10.3638 38.808C10.4215 38.9082 10.4985 38.996 10.5903 39.0664C10.682 39.1369 10.7867 39.1885 10.8985 39.2184C11.0102 39.2483 11.1267 39.2559 11.2414 39.2408C11.3561 39.2256 11.4666 39.188 11.5667 39.1301L14.337 37.5302C15.5344 38.6082 16.9463 39.4206 18.48 39.9142V43.12C18.48 43.3534 18.5727 43.5772 18.7377 43.7423C18.9028 43.9073 19.1266 44 19.36 44H24.64C24.8734 44 25.0972 43.9073 25.2623 43.7423C25.4273 43.5772 25.52 43.3534 25.52 43.12V39.9142C27.0538 39.4201 28.4658 38.607 29.663 37.5285L32.4333 39.1283C32.5334 39.1862 32.6439 39.2238 32.7586 39.239C32.8733 39.2542 32.9898 39.2466 33.1015 39.2167C33.2133 39.1867 33.318 39.1351 33.4097 39.0647C33.5015 38.9943 33.5785 38.9064 33.6362 38.8062L36.2762 34.2302C36.334 34.1301 36.3714 34.0196 36.3865 33.905C36.4015 33.7904 36.3938 33.6739 36.3638 33.5623C36.3338 33.4507 36.2821 33.346 36.2117 33.2544C36.1412 33.1627 36.0534 33.0859 35.9533 33.0282L33.176 31.4301C33.2814 30.9321 33.3534 30.4276 33.3916 29.92H41.36C42.0602 29.92 42.7317 29.6419 43.2268 29.1468C43.7219 28.6517 44 27.9802 44 27.28V2.64C44 1.93983 43.7219 1.26833 43.2268 0.773238C42.7317 0.278142 42.0602 0 41.36 0ZM2.64 1.76H41.36C41.5934 1.76 41.8172 1.85271 41.9823 2.01775C42.1473 2.18278 42.24 2.40661 42.24 2.64V7.04H1.76V2.64C1.76 2.40661 1.85271 2.18278 2.01775 2.01775C2.18278 1.85271 2.40661 1.76 2.64 1.76ZM34.3112 34.1167L32.5512 37.1633L29.971 35.6743C29.8022 35.5768 29.6057 35.5382 29.4125 35.5645C29.2193 35.5908 29.0403 35.6805 28.9036 35.8195C27.6718 37.0721 26.1216 37.9648 24.42 38.4014C24.2311 38.4502 24.0638 38.5603 23.9444 38.7145C23.8249 38.8687 23.76 39.0582 23.76 39.2533V42.24H20.24V39.2533C20.24 39.0582 20.1751 38.8687 20.0556 38.7145C19.9362 38.5603 19.7689 38.4502 19.58 38.4014C17.878 37.9638 16.3277 37.0699 15.0964 35.816C14.9597 35.677 14.7807 35.5873 14.5875 35.561C14.3943 35.5347 14.1978 35.5733 14.029 35.6708L11.4488 37.1633L9.6888 34.1167L12.2725 32.6207C12.4416 32.5232 12.5735 32.3723 12.6474 32.1916C12.7213 32.011 12.7331 31.8109 12.6808 31.6228C12.1997 29.9327 12.1997 28.142 12.6808 26.4519C12.7331 26.2639 12.7213 26.0638 12.6474 25.8831C12.5735 25.7024 12.4416 25.5515 12.2725 25.454L9.6888 23.958L11.4488 20.9114L14.029 22.4004C14.1978 22.4979 14.3943 22.5365 14.5875 22.5102C14.7807 22.4839 14.9597 22.3942 15.0964 22.2552C16.3282 21.0026 17.8784 20.1099 19.58 19.6733C19.7689 19.6245 19.9362 19.5144 20.0556 19.3602C20.1751 19.206 20.24 19.0165 20.24 18.8214V15.84H23.76V18.8267C23.76 19.0218 23.8249 19.2113 23.9444 19.3655C24.0638 19.5197 24.2311 19.6298 24.42 19.6786C26.122 20.1162 27.6723 21.0101 28.9036 22.264C29.0403 22.403 29.2193 22.4927 29.4125 22.519C29.6057 22.5453 29.8022 22.5067 29.971 22.4092L32.5512 20.9202L34.3112 23.9668L31.7275 25.4628C31.5584 25.5603 31.4265 25.7112 31.3526 25.8919C31.2787 26.0726 31.267 26.2727 31.3192 26.4607C31.8002 28.1508 31.8002 29.9415 31.3192 31.6316C31.267 31.8197 31.2787 32.0198 31.3526 32.2004C31.4265 32.3811 31.5584 32.532 31.7275 32.6295L34.3112 34.1167ZM41.36 28.16H33.3916C33.3546 27.6525 33.2837 27.148 33.1795 26.6499L35.9533 25.0483C36.0534 24.9906 36.1412 24.9137 36.2117 24.8221C36.2821 24.7304 36.3338 24.6258 36.3638 24.5142C36.3938 24.4026 36.4015 24.2861 36.3865 24.1715C36.3714 24.0569 36.334 23.9464 36.2762 23.8462L33.6362 19.2702C33.5785 19.17 33.5015 19.0822 33.4097 19.0118C33.318 18.9414 33.2133 18.8897 33.1015 18.8598C32.9898 18.8299 32.8733 18.8223 32.7586 18.8375C32.6439 18.8526 32.5334 18.8902 32.4333 18.9482L29.663 20.548C28.4654 19.4707 27.0535 18.6589 25.52 18.1658V14.96C25.52 14.7266 25.4273 14.5028 25.2623 14.3377C25.0972 14.1727 24.8734 14.08 24.64 14.08H19.36C19.1266 14.08 18.9028 14.1727 18.7377 14.3377C18.5727 14.5028 18.48 14.7266 18.48 14.96V18.1658C16.9462 18.6599 15.5342 19.4729 14.337 20.5515L11.5667 18.9517C11.4666 18.8938 11.3561 18.8562 11.2414 18.841C11.1267 18.8258 11.0102 18.8334 10.8985 18.8633C10.7867 18.8933 10.682 18.9449 10.5903 19.0153C10.4985 19.0857 10.4215 19.1736 10.3638 19.2738L7.72376 23.8498C7.66602 23.9499 7.62857 24.0604 7.61355 24.175C7.59853 24.2896 7.60623 24.4061 7.63622 24.5177C7.66621 24.6293 7.7179 24.734 7.78834 24.8256C7.85877 24.9173 7.94657 24.9941 8.04672 25.0518L10.8205 26.6534C10.7164 27.1504 10.6456 27.6537 10.6084 28.16H2.64C2.40661 28.16 2.18278 28.0673 2.01775 27.9023C1.85271 27.7372 1.76 27.5134 1.76 27.28V8.8H42.24V27.28C42.24 27.5134 42.1473 27.7372 41.9823 27.9023C41.8172 28.0673 41.5934 28.16 41.36 28.16Z" fill="#AAAFB5"/>
<path d="M4.4 5.27912C4.88601 5.27912 5.28 4.88513 5.28 4.39912C5.28 3.91311 4.88601 3.51912 4.4 3.51912C3.91399 3.51912 3.52 3.91311 3.52 4.39912C3.52 4.88513 3.91399 5.27912 4.4 5.27912Z" fill="#AAAFB5"/>
<path d="M7.92 5.27912C8.40601 5.27912 8.8 4.88513 8.8 4.39912C8.8 3.91311 8.40601 3.51912 7.92 3.51912C7.43399 3.51912 7.04 3.91311 7.04 4.39912C7.04 4.88513 7.43399 5.27912 7.92 5.27912Z" fill="#AAAFB5"/>
<path d="M11.44 5.27912C11.926 5.27912 12.32 4.88513 12.32 4.39912C12.32 3.91311 11.926 3.51912 11.44 3.51912C10.954 3.51912 10.56 3.91311 10.56 4.39912C10.56 4.88513 10.954 5.27912 11.44 5.27912Z" fill="#AAAFB5"/>
</svg>
