<svg width="44" height="44" viewBox="0 0 44 44" fill="none" xmlns="http://www.w3.org/2000/svg">
<path d="M6.16 40.48C6.68214 40.48 7.19256 40.3252 7.62671 40.0351C8.06085 39.745 8.39923 39.3327 8.59904 38.8503C8.79886 38.3679 8.85114 37.8371 8.74927 37.325C8.64741 36.8129 8.39597 36.3424 8.02676 35.9732C7.65755 35.604 7.18715 35.3526 6.67504 35.2507C6.16293 35.1489 5.63211 35.2011 5.14972 35.401C4.66732 35.6008 4.25501 35.9391 3.96492 36.3733C3.67483 36.8074 3.52 37.3179 3.52 37.84C3.52 38.5402 3.79814 39.2117 4.29324 39.7068C4.78833 40.2019 5.45983 40.48 6.16 40.48ZM6.16 36.96C6.33405 36.96 6.50419 37.0116 6.6489 37.1083C6.79362 37.205 6.90641 37.3424 6.97301 37.5032C7.03962 37.664 7.05705 37.841 7.02309 38.0117C6.98914 38.1824 6.90532 38.3392 6.78225 38.4623C6.65918 38.5853 6.50238 38.6691 6.33168 38.7031C6.16098 38.737 5.98404 38.7196 5.82324 38.653C5.66244 38.5864 5.525 38.4736 5.42831 38.3289C5.33161 38.1842 5.28 38.014 5.28 37.84C5.28 37.6066 5.37271 37.3828 5.53775 37.2177C5.70278 37.0527 5.92661 36.96 6.16 36.96Z" fill="#AAAFB5"/>
<path d="M41.36 31.68H29.1491L39.7241 25.5754C40.0247 25.4022 40.2882 25.1715 40.4996 24.8964C40.7109 24.6212 40.866 24.3072 40.9559 23.9721C41.0458 23.637 41.0688 23.2875 41.0235 22.9435C40.9782 22.5995 40.8656 22.2679 40.6921 21.9674L37.1721 15.8708C36.8211 15.2649 36.2443 14.8229 35.5681 14.6414C34.8918 14.46 34.1712 14.554 33.5641 14.9028L22.99 21.01L29.0946 10.435C29.2681 10.1346 29.3807 9.80295 29.426 9.45898C29.4713 9.11501 29.4483 8.76549 29.3584 8.4304C29.2685 8.09532 29.1134 7.78124 28.9021 7.50612C28.6907 7.231 28.4272 7.00025 28.1266 6.82704L22.0299 3.30704C21.7295 3.1335 21.3978 3.02088 21.0539 2.97561C20.7099 2.93034 20.3604 2.95331 20.0253 3.04321C19.6902 3.13311 19.3761 3.28818 19.101 3.49955C18.8259 3.71091 18.5951 3.97443 18.4219 4.27504L12.32 14.85V2.64C12.32 1.93983 12.0419 1.26833 11.5468 0.773238C11.0517 0.278142 10.3802 0 9.68 0H2.64C1.93983 0 1.26833 0.278142 0.773238 0.773238C0.278142 1.26833 0 1.93983 0 2.64V41.36C0 42.0602 0.278142 42.7317 0.773238 43.2268C1.26833 43.7219 1.93983 44 2.64 44H41.36C42.0602 44 42.7317 43.7219 43.2268 43.2268C43.7219 42.7317 44 42.0602 44 41.36V34.32C44 33.6198 43.7219 32.9483 43.2268 32.4532C42.7317 31.9581 42.0602 31.68 41.36 31.68ZM10.56 41.36C10.56 41.5934 10.4673 41.8172 10.3023 41.9823C10.1372 42.1473 9.91339 42.24 9.68 42.24H2.64C2.40661 42.24 2.18278 42.1473 2.01775 41.9823C1.85271 41.8172 1.76 41.5934 1.76 41.36V33.44H10.56V41.36ZM10.56 31.68H1.76V28.16H10.56V31.68ZM10.56 26.4H1.76V22.88H10.56V26.4ZM10.56 21.12H1.76V17.6H10.56V21.12ZM10.56 15.84H1.76V12.32H10.56V15.84ZM10.56 10.56H1.76V7.04H10.56V10.56ZM10.56 5.28H1.76V2.64C1.76 2.40661 1.85271 2.18278 2.01775 2.01775C2.18278 1.85271 2.40661 1.76 2.64 1.76H9.68C9.91339 1.76 10.1372 1.85271 10.3023 2.01775C10.4673 2.18278 10.56 2.40661 10.56 2.64V5.28ZM34.4441 16.4296C34.6462 16.3129 34.8864 16.2813 35.1118 16.3417C35.3373 16.4021 35.5295 16.5496 35.6462 16.7517L39.1662 22.8483C39.2828 23.0504 39.3145 23.2906 39.2541 23.5161C39.1937 23.7415 39.0462 23.9337 38.8441 24.0504L12.43 39.2999L21.23 24.0592L34.4441 16.4296ZM12.32 18.3709L19.9496 5.15592C20.0663 4.95381 20.2585 4.80633 20.4839 4.74593C20.7094 4.68553 20.9496 4.71715 21.1517 4.83384L27.2483 8.35384C27.4504 8.47054 27.5979 8.66275 27.6583 8.88818C27.7187 9.11361 27.6871 9.3538 27.5704 9.55592L12.32 35.9709V18.3709ZM42.24 41.36C42.24 41.5934 42.1473 41.8172 41.9823 41.9823C41.8172 42.1473 41.5934 42.24 41.36 42.24H12.1581C12.2567 41.9702 12.3102 41.6859 12.3165 41.3987L26.1008 33.44H41.36C41.5934 33.44 41.8172 33.5327 41.9823 33.6977C42.1473 33.8628 42.24 34.0866 42.24 34.32V41.36Z" fill="#AAAFB5"/>
</svg>
