<svg width="44" height="44" viewBox="0 0 44 44" fill="none" xmlns="http://www.w3.org/2000/svg">
<path d="M41.36 4H2.64C1.93983 4 1.26833 4.27814 0.773238 4.77324C0.278142 5.26833 0 5.93983 0 6.64V38.32C0 39.0202 0.278142 39.6917 0.773238 40.1868C1.26833 40.6819 1.93983 40.96 2.64 40.96H41.36C42.0602 40.96 42.7317 40.6819 43.2268 40.1868C43.7219 39.6917 44 39.0202 44 38.32V6.64C44 5.93983 43.7219 5.26833 43.2268 4.77324C42.7317 4.27814 42.0602 4 41.36 4ZM2.64 5.76H41.36C41.5934 5.76 41.8172 5.85271 41.9823 6.01775C42.1473 6.18278 42.24 6.40661 42.24 6.64V11.04H1.76V6.64C1.76 6.40661 1.85271 6.18278 2.01775 6.01775C2.18278 5.85271 2.40661 5.76 2.64 5.76ZM41.36 39.2H2.64C2.40661 39.2 2.18278 39.1073 2.01775 38.9423C1.85271 38.7772 1.76 38.5534 1.76 38.32V12.8H42.24V38.32C42.24 38.5534 42.1473 38.7772 41.9823 38.9423C41.8172 39.1073 41.5934 39.2 41.36 39.2Z" fill="#AAAFB5"/>
<path d="M4.4 9.28H6.16C6.39339 9.28 6.61722 9.18729 6.78225 9.02225C6.94729 8.85722 7.04 8.63339 7.04 8.4C7.04 8.16661 6.94729 7.94278 6.78225 7.77775C6.61722 7.61271 6.39339 7.52 6.16 7.52H4.4C4.16661 7.52 3.94278 7.61271 3.77775 7.77775C3.61271 7.94278 3.52 8.16661 3.52 8.4C3.52 8.63339 3.61271 8.85722 3.77775 9.02225C3.94278 9.18729 4.16661 9.28 4.4 9.28Z" fill="#AAAFB5"/>
<path d="M9.68 9.28H11.44C11.6734 9.28 11.8972 9.18729 12.0623 9.02225C12.2273 8.85722 12.32 8.63339 12.32 8.4C12.32 8.16661 12.2273 7.94278 12.0623 7.77775C11.8972 7.61271 11.6734 7.52 11.44 7.52H9.68C9.44661 7.52 9.22278 7.61271 9.05775 7.77775C8.89271 7.94278 8.8 8.16661 8.8 8.4C8.8 8.63339 8.89271 8.85722 9.05775 9.02225C9.22278 9.18729 9.44661 9.28 9.68 9.28Z" fill="#AAAFB5"/>
<path d="M14.96 9.28H16.72C16.9534 9.28 17.1772 9.18729 17.3423 9.02225C17.5073 8.85722 17.6 8.63339 17.6 8.4C17.6 8.16661 17.5073 7.94278 17.3423 7.77775C17.1772 7.61271 16.9534 7.52 16.72 7.52H14.96C14.7266 7.52 14.5028 7.61271 14.3377 7.77775C14.1727 7.94278 14.08 8.16661 14.08 8.4C14.08 8.63339 14.1727 8.85722 14.3377 9.02225C14.5028 9.18729 14.7266 9.28 14.96 9.28Z" fill="#AAAFB5"/>
<path d="M11.3687 30.4H11.3766C11.6087 30.4 11.8313 30.3084 11.9961 30.1451C12.1609 29.9817 12.2546 29.7599 12.2566 29.5279C12.2566 29.1759 12.2707 27.9994 12.2822 26.5042H13.2C13.4334 26.5042 13.6572 26.4115 13.8223 26.2465C13.9873 26.0815 14.08 25.8576 14.08 25.6242C14.08 25.3909 13.9873 25.167 13.8223 25.002C13.6572 24.837 13.4334 24.7442 13.2 24.7442H12.2945C12.3165 21.4566 12.3314 17.6374 12.2883 17.1578C12.2719 16.7971 12.1503 16.4491 11.9384 16.1569C11.7265 15.8646 11.4336 15.6407 11.0959 15.513C10.7414 15.412 10.3641 15.4243 10.017 15.5484C9.66982 15.6724 9.37014 15.9019 9.15992 16.2047C8.36 17.1278 4.1184 24.3588 3.63704 25.1807C3.55889 25.3146 3.51751 25.4669 3.5171 25.6219C3.51669 25.777 3.55726 25.9294 3.6347 26.0637C3.71214 26.1981 3.82371 26.3096 3.9581 26.3869C4.09249 26.4643 4.24494 26.5048 4.4 26.5042H10.5222C10.5142 27.5699 10.5054 28.6004 10.4966 29.5121C10.4956 29.6276 10.5173 29.7423 10.5606 29.8494C10.6038 29.9566 10.6678 30.0542 10.7488 30.1367C10.8298 30.2191 10.9262 30.2848 11.0326 30.33C11.1389 30.3752 11.2532 30.399 11.3687 30.4ZM5.93912 24.7442C7.71496 21.7382 10.0426 17.8802 10.494 17.3566C10.5081 17.339 10.5222 17.325 10.5354 17.3109C10.5679 17.6884 10.5574 21.1662 10.5354 24.7425L5.93912 24.7442Z" fill="#AAAFB5"/>
<path d="M39.6 24.7442H38.6945C38.7156 21.4566 38.7314 17.6374 38.6883 17.1578C38.6726 16.7969 38.5512 16.4487 38.3392 16.1562C38.1272 15.8638 37.834 15.6402 37.4959 15.513C37.1413 15.4133 36.7645 15.4263 36.4177 15.5502C36.0708 15.6742 35.771 15.9029 35.5599 16.2047C34.7626 17.1278 30.5202 24.3588 30.0388 25.1807C29.9607 25.3145 29.9193 25.4666 29.9189 25.6215C29.9184 25.7764 29.9588 25.9287 30.036 26.063C30.1133 26.1973 30.2246 26.3088 30.3587 26.3863C30.4929 26.4637 30.6451 26.5044 30.8 26.5042H36.9222C36.9142 27.5708 36.9054 28.6004 36.8975 29.5121C36.8965 29.6276 36.9182 29.7423 36.9615 29.8494C37.0047 29.9566 37.0687 30.0542 37.1497 30.1367C37.2306 30.2191 37.3271 30.2848 37.4334 30.33C37.5398 30.3752 37.654 30.399 37.7696 30.4H37.7775C38.0095 30.4 38.2322 30.3084 38.397 30.1451C38.5618 29.9817 38.6554 29.7599 38.6575 29.5279C38.6575 29.1759 38.6707 27.9994 38.6822 26.5042H39.6C39.8334 26.5042 40.0572 26.4115 40.2223 26.2465C40.3873 26.0815 40.48 25.8576 40.48 25.6242C40.48 25.3909 40.3873 25.167 40.2223 25.002C40.0572 24.837 39.8334 24.7442 39.6 24.7442ZM36.9345 24.7442H32.3391C34.115 21.7382 36.4426 17.8802 36.8931 17.3566C36.9072 17.339 36.9222 17.325 36.9354 17.3109C36.9679 17.691 36.96 21.1679 36.9345 24.7442Z" fill="#AAAFB5"/>
<path d="M22 30.4C23.2195 30.4122 24.394 29.9403 25.266 29.0877C26.1381 28.2352 26.6364 27.0716 26.6517 25.8522V19.9878C26.628 18.7698 26.1275 17.6097 25.2577 16.7566C24.3879 15.9036 23.2183 15.4258 22 15.4258C20.7817 15.4258 19.6121 15.9036 18.7423 16.7566C17.8725 17.6097 17.372 18.7698 17.3483 19.9878V25.8522C17.3636 27.0716 17.8619 28.2352 18.734 29.0877C19.606 29.9403 20.7805 30.4122 22 30.4ZM19.1083 19.9878C19.1345 19.2384 19.4506 18.5283 19.99 18.0074C20.5295 17.4865 21.2501 17.1953 22 17.1953C22.7499 17.1953 23.4705 17.4865 24.01 18.0074C24.5494 18.5283 24.8655 19.2384 24.8917 19.9878V25.8522C24.8655 26.6016 24.5494 27.3117 24.01 27.8326C23.4705 28.3535 22.7499 28.6447 22 28.6447C21.2501 28.6447 20.5295 28.3535 19.99 27.8326C19.4506 27.3117 19.1345 26.6016 19.1083 25.8522V19.9878Z" fill="#AAAFB5"/>
<path d="M32.56 35.68H11.44C11.2066 35.68 10.9828 35.7727 10.8177 35.9377C10.6527 36.1028 10.56 36.3266 10.56 36.56C10.56 36.7934 10.6527 37.0172 10.8177 37.1823C10.9828 37.3473 11.2066 37.44 11.44 37.44H32.56C32.7934 37.44 33.0172 37.3473 33.1823 37.1823C33.3473 37.0172 33.44 36.7934 33.44 36.56C33.44 36.3266 33.3473 36.1028 33.1823 35.9377C33.0172 35.7727 32.7934 35.68 32.56 35.68Z" fill="#AAAFB5"/>
</svg>
