<svg width="44" height="44" viewBox="0 0 44 44" fill="none" xmlns="http://www.w3.org/2000/svg">
<path d="M43.12 42.24H41.36V41.36C41.36 41.1266 41.2673 40.9028 41.1023 40.7377C40.9372 40.5727 40.7134 40.48 40.48 40.48C40.2466 40.48 40.0228 40.5727 39.8577 40.7377C39.6927 40.9028 39.6 41.1266 39.6 41.36V42.24H28.16V41.36C28.16 41.1266 28.0673 40.9028 27.9023 40.7377C27.7372 40.5727 27.5134 40.48 27.28 40.48C27.0466 40.48 26.8228 40.5727 26.6577 40.7377C26.4927 40.9028 26.4 41.1266 26.4 41.36V42.24H14.96V41.36C14.96 41.1266 14.8673 40.9028 14.7023 40.7377C14.5372 40.5727 14.3134 40.48 14.08 40.48C13.8466 40.48 13.6228 40.5727 13.4577 40.7377C13.2927 40.9028 13.2 41.1266 13.2 41.36V42.24H1.76V36.0061C4.77664 35.5406 6.11512 32.7193 7.11128 30.6055C7.656 29.4598 8.26496 28.16 8.8 28.16C9.48552 28.16 10.1596 30.184 10.6049 31.5181C11.2288 33.3872 11.8721 35.3021 13.2 35.8934V36.96C13.2 37.1934 13.2927 37.4172 13.4577 37.5823C13.6228 37.7473 13.8466 37.84 14.08 37.84C14.3134 37.84 14.5372 37.7473 14.7023 37.5823C14.8673 37.4172 14.96 37.1934 14.96 36.96V35.9163C17.5903 34.9615 17.6 29.5328 17.6 23.32C17.6 18.9394 17.6 12.32 19.36 12.32C21.1446 12.32 21.7448 14.6529 22.4576 18.216C23.0736 21.3171 23.7776 24.7826 26.4 25.4126V26.4C26.4 26.6334 26.4927 26.8572 26.6577 27.0223C26.8228 27.1873 27.0466 27.28 27.28 27.28C27.5134 27.28 27.7372 27.1873 27.9023 27.0223C28.0673 26.8572 28.16 26.6334 28.16 26.4V25.3669C30.2122 24.6189 30.6671 21.1209 31.2224 16.8168C32.0531 10.3928 33.088 2.48424 39.6 1.82424V2.64C39.6 2.87339 39.6927 3.09722 39.8577 3.26225C40.0228 3.42729 40.2466 3.52 40.48 3.52C40.7134 3.52 40.9372 3.42729 41.1023 3.26225C41.2673 3.09722 41.36 2.87339 41.36 2.64V0.88C41.36 0.646609 41.2673 0.422778 41.1023 0.257746C40.9372 0.092714 40.7134 0 40.48 0C31.621 0 30.382 9.592 29.48 16.5915C29.04 19.9514 28.5516 23.76 27.28 23.76C25.4954 23.76 24.8952 21.4271 24.1824 17.864C23.4978 14.439 22.7216 10.56 19.36 10.56C15.84 10.56 15.84 16.4736 15.84 23.32C15.84 27.7006 15.84 34.32 14.08 34.32C13.3945 34.32 12.7204 32.296 12.2751 30.9619C11.528 28.7197 10.7545 26.4 8.8 26.4C7.14824 26.4 6.35712 28.0782 5.51936 29.8558C4.4528 32.12 3.52 33.8026 1.76 34.2162V0.88C1.76 0.646609 1.66729 0.422778 1.50225 0.257746C1.33722 0.092714 1.11339 0 0.88 0C0.646609 0 0.422778 0.092714 0.257746 0.257746C0.092714 0.422778 0 0.646609 0 0.88V43.12C0 43.3534 0.092714 43.5772 0.257746 43.7423C0.422778 43.9073 0.646609 44 0.88 44H43.12C43.3534 44 43.5772 43.9073 43.7423 43.7423C43.9073 43.5772 44 43.3534 44 43.12C44 42.8866 43.9073 42.6628 43.7423 42.4977C43.5772 42.3327 43.3534 42.24 43.12 42.24Z" fill="#AAAFB5"/>
<path d="M41.36 13.2C41.36 12.9666 41.2673 12.7428 41.1023 12.5777C40.9372 12.4127 40.7134 12.32 40.48 12.32C40.2466 12.32 40.0228 12.4127 39.8577 12.5777C39.6927 12.7428 39.6 12.9666 39.6 13.2V16.72C39.6 16.9534 39.6927 17.1772 39.8577 17.3423C40.0228 17.5073 40.2466 17.6 40.48 17.6C40.7134 17.6 40.9372 17.5073 41.1023 17.3423C41.2673 17.1772 41.36 16.9534 41.36 16.72V13.2Z" fill="#AAAFB5"/>
<path d="M40.48 33.44C40.2466 33.44 40.0228 33.5327 39.8577 33.6977C39.6927 33.8628 39.6 34.0866 39.6 34.32V37.84C39.6 38.0734 39.6927 38.2972 39.8577 38.4623C40.0228 38.6273 40.2466 38.72 40.48 38.72C40.7134 38.72 40.9372 38.6273 41.1023 38.4623C41.2673 38.2972 41.36 38.0734 41.36 37.84V34.32C41.36 34.0866 41.2673 33.8628 41.1023 33.6977C40.9372 33.5327 40.7134 33.44 40.48 33.44Z" fill="#AAAFB5"/>
<path d="M41.36 6.16C41.36 5.92661 41.2673 5.70278 41.1023 5.53775C40.9372 5.37271 40.7134 5.28 40.48 5.28C40.2466 5.28 40.0228 5.37271 39.8577 5.53775C39.6927 5.70278 39.6 5.92661 39.6 6.16V9.68C39.6 9.91339 39.6927 10.1372 39.8577 10.3023C40.0228 10.4673 40.2466 10.56 40.48 10.56C40.7134 10.56 40.9372 10.4673 41.1023 10.3023C41.2673 10.1372 41.36 9.91339 41.36 9.68V6.16Z" fill="#AAAFB5"/>
<path d="M41.36 20.24C41.36 20.0066 41.2673 19.7828 41.1023 19.6177C40.9372 19.4527 40.7134 19.36 40.48 19.36C40.2466 19.36 40.0228 19.4527 39.8577 19.6177C39.6927 19.7828 39.6 20.0066 39.6 20.24V23.76C39.6 23.9934 39.6927 24.2172 39.8577 24.3823C40.0228 24.5473 40.2466 24.64 40.48 24.64C40.7134 24.64 40.9372 24.5473 41.1023 24.3823C41.2673 24.2172 41.36 23.9934 41.36 23.76V20.24Z" fill="#AAAFB5"/>
<path d="M41.36 27.28C41.36 27.0466 41.2673 26.8228 41.1023 26.6577C40.9372 26.4927 40.7134 26.4 40.48 26.4C40.2466 26.4 40.0228 26.4927 39.8577 26.6577C39.6927 26.8228 39.6 27.0466 39.6 27.28V30.8C39.6 31.0334 39.6927 31.2572 39.8577 31.4223C40.0228 31.5873 40.2466 31.68 40.48 31.68C40.7134 31.68 40.9372 31.5873 41.1023 31.4223C41.2673 31.2572 41.36 31.0334 41.36 30.8V27.28Z" fill="#AAAFB5"/>
<path d="M27.28 34.496C27.0466 34.496 26.8228 34.5887 26.6577 34.7537C26.4927 34.9188 26.4 35.1426 26.4 35.376V38.368C26.4 38.6014 26.4927 38.8252 26.6577 38.9903C26.8228 39.1553 27.0466 39.248 27.28 39.248C27.5134 39.248 27.7372 39.1553 27.9023 38.9903C28.0673 38.8252 28.16 38.6014 28.16 38.368V35.376C28.16 35.1426 28.0673 34.9188 27.9023 34.7537C27.7372 34.5887 27.5134 34.496 27.28 34.496Z" fill="#AAAFB5"/>
<path d="M28.16 29.392C28.16 29.1586 28.0673 28.9348 27.9023 28.7697C27.7372 28.6047 27.5134 28.512 27.28 28.512C27.0466 28.512 26.8228 28.6047 26.6577 28.7697C26.4927 28.9348 26.4 29.1586 26.4 29.392V32.384C26.4 32.6174 26.4927 32.8412 26.6577 33.0063C26.8228 33.1713 27.0466 33.264 27.28 33.264C27.5134 33.264 27.7372 33.1713 27.9023 33.0063C28.0673 32.8412 28.16 32.6174 28.16 32.384V29.392Z" fill="#AAAFB5"/>
</svg>
