<svg width="44" height="44" viewBox="0 0 44 44" fill="none" xmlns="http://www.w3.org/2000/svg">
<path d="M40.8571 1H3.14286C2.30932 1 1.50992 1.33112 0.920522 1.92052C0.331122 2.50992 0 3.30932 0 4.14286V40.8095C0 41.6431 0.331122 42.4425 0.920522 43.0319C1.50992 43.6213 2.30932 43.9524 3.14286 43.9524H40.8571C41.6907 43.9524 42.4901 43.6213 43.0795 43.0319C43.6689 42.4425 44 41.6431 44 40.8095V4.14286C44 3.30932 43.6689 2.50992 43.0795 1.92052C42.4901 1.33112 41.6907 1 40.8571 1ZM3.14286 3.09524H40.8571C41.135 3.09524 41.4015 3.20561 41.5979 3.40208C41.7944 3.59855 41.9048 3.86501 41.9048 4.14286V9.38095H2.09524V4.14286C2.09524 3.86501 2.20561 3.59855 2.40208 3.40208C2.59855 3.20561 2.86501 3.09524 3.14286 3.09524ZM40.8571 41.8571H3.14286C2.86501 41.8571 2.59855 41.7468 2.40208 41.5503C2.20561 41.3538 2.09524 41.0874 2.09524 40.8095V11.4762H41.9048V40.8095C41.9048 41.0874 41.7944 41.3538 41.5979 41.5503C41.4015 41.7468 41.135 41.8571 40.8571 41.8571Z" fill="#AAAFB5"/>
<path d="M9.42857 7.28571H34.5714C34.8493 7.28571 35.1157 7.17534 35.3122 6.97887C35.5087 6.78241 35.619 6.51594 35.619 6.2381C35.619 5.96025 35.5087 5.69378 35.3122 5.49732C35.1157 5.30085 34.8493 5.19048 34.5714 5.19048H9.42857C9.15073 5.19048 8.88426 5.30085 8.68779 5.49732C8.49133 5.69378 8.38095 5.96025 8.38095 6.2381C8.38095 6.51594 8.49133 6.78241 8.68779 6.97887C8.88426 7.17534 9.15073 7.28571 9.42857 7.28571Z" fill="#AAAFB5"/>
<path d="M26.1905 13.5714H5.2381C4.96025 13.5714 4.69378 13.6818 4.49732 13.8783C4.30085 14.0747 4.19048 14.3412 4.19048 14.619V38.7143C4.19048 38.9921 4.30085 39.2586 4.49732 39.4551C4.69378 39.6515 4.96025 39.7619 5.2381 39.7619H26.1905C26.4683 39.7619 26.7348 39.6515 26.9313 39.4551C27.1277 39.2586 27.2381 38.9921 27.2381 38.7143V14.619C27.2381 14.3412 27.1277 14.0747 26.9313 13.8783C26.7348 13.6818 26.4683 13.5714 26.1905 13.5714ZM25.1429 37.6667H6.28571V15.6667H25.1429V37.6667Z" fill="#AAAFB5"/>
<path d="M38.7619 13.5714H30.381C30.1031 13.5714 29.8366 13.6818 29.6402 13.8783C29.4437 14.0747 29.3333 14.3412 29.3333 14.619V38.7143C29.3333 38.9921 29.4437 39.2586 29.6402 39.4551C29.8366 39.6515 30.1031 39.7619 30.381 39.7619H38.7619C39.0398 39.7619 39.3062 39.6515 39.5027 39.4551C39.6992 39.2586 39.8095 38.9921 39.8095 38.7143V14.619C39.8095 14.3412 39.6992 14.0747 39.5027 13.8783C39.3062 13.6818 39.0398 13.5714 38.7619 13.5714ZM37.7143 37.6667H31.4286V15.6667H37.7143V37.6667Z" fill="#AAAFB5"/>
<path d="M9.42857 19.8571H22C22.2778 19.8571 22.5443 19.7468 22.7408 19.5503C22.9372 19.3538 23.0476 19.0874 23.0476 18.8095C23.0476 18.5317 22.9372 18.2652 22.7408 18.0687C22.5443 17.8723 22.2778 17.7619 22 17.7619H9.42857C9.15073 17.7619 8.88426 17.8723 8.68779 18.0687C8.49133 18.2652 8.38095 18.5317 8.38095 18.8095C8.38095 19.0874 8.49133 19.3538 8.68779 19.5503C8.88426 19.7468 9.15073 19.8571 9.42857 19.8571Z" fill="#AAAFB5"/>
<path d="M9.42857 25.0952H22C22.2778 25.0952 22.5443 24.9849 22.7408 24.7884C22.9372 24.5919 23.0476 24.3255 23.0476 24.0476C23.0476 23.7698 22.9372 23.5033 22.7408 23.3068C22.5443 23.1104 22.2778 23 22 23H9.42857C9.15073 23 8.88426 23.1104 8.68779 23.3068C8.49133 23.5033 8.38095 23.7698 8.38095 24.0476C8.38095 24.3255 8.49133 24.5919 8.68779 24.7884C8.88426 24.9849 9.15073 25.0952 9.42857 25.0952Z" fill="#AAAFB5"/>
<path d="M9.42857 30.3333H22C22.2778 30.3333 22.5443 30.223 22.7408 30.0265C22.9372 29.83 23.0476 29.5636 23.0476 29.2857C23.0476 29.0079 22.9372 28.7414 22.7408 28.5449C22.5443 28.3485 22.2778 28.2381 22 28.2381H9.42857C9.15073 28.2381 8.88426 28.3485 8.68779 28.5449C8.49133 28.7414 8.38095 29.0079 8.38095 29.2857C8.38095 29.5636 8.49133 29.83 8.68779 30.0265C8.88426 30.223 9.15073 30.3333 9.42857 30.3333Z" fill="#AAAFB5"/>
<path d="M9.42857 35.5714H22C22.2778 35.5714 22.5443 35.4611 22.7408 35.2646C22.9372 35.0681 23.0476 34.8017 23.0476 34.5238C23.0476 34.246 22.9372 33.9795 22.7408 33.783C22.5443 33.5866 22.2778 33.4762 22 33.4762H9.42857C9.15073 33.4762 8.88426 33.5866 8.68779 33.783C8.49133 33.9795 8.38095 34.246 8.38095 34.5238C8.38095 34.8017 8.49133 35.0681 8.68779 35.2646C8.88426 35.4611 9.15073 35.5714 9.42857 35.5714Z" fill="#AAAFB5"/>
</svg>
