<svg width="44" height="44" viewBox="0 0 44 44" fill="none" xmlns="http://www.w3.org/2000/svg">
<rect width="44" height="44" rx="22" fill="#F0C6CB" fill-opacity="0.25"/>
<g clip-path="url(#clip0_4341_249)">
<path d="M10.3357 22.1609L14.7137 23.7949L16.4082 29.2446C16.5167 29.5936 16.9435 29.7226 17.2268 29.491L19.6671 27.5016C19.9229 27.2931 20.2873 27.2827 20.5546 27.4768L24.9562 30.6724C25.2592 30.8927 25.6885 30.7266 25.7645 30.3604L28.9889 14.8507C29.0719 14.4506 28.6788 14.1169 28.2979 14.2643L10.3306 21.1955C9.88719 21.3665 9.89105 21.9943 10.3357 22.1609ZM16.1352 22.9251L24.6914 17.6553C24.8451 17.5609 25.0033 17.7688 24.8713 17.8913L17.8099 24.4552C17.5617 24.6862 17.4016 24.9954 17.3563 25.331L17.1157 27.1136C17.0839 27.3516 16.7495 27.3752 16.6839 27.1449L15.7588 23.8943C15.6528 23.5235 15.8072 23.1275 16.1352 22.9251Z" fill="#D93A4D"/>
</g>
<defs>
<clipPath id="clip0_4341_249">
<rect width="19" height="19" fill="white" transform="translate(10 13)"/>
</clipPath>
</defs>
</svg>
