<svg width="46" height="44" viewBox="0 0 46 44" fill="none" xmlns="http://www.w3.org/2000/svg">
<path d="M36.3159 21.1009L45.1154 12.3014C45.2804 12.1364 45.373 11.9126 45.373 11.6793C45.373 11.4459 45.2804 11.2222 45.1154 11.0571L36.3159 2.25764C36.1929 2.13467 36.0362 2.05091 35.8656 2.01694C35.695 1.98298 35.5182 2.00033 35.3575 2.0668C35.1967 2.13328 35.0593 2.2459 34.9625 2.39044C34.8658 2.53498 34.814 2.70495 34.8138 2.87888V7.27864H18.9747C14.3072 7.27794 9.8305 9.13144 6.52955 12.4314C3.2286 15.7314 1.37375 20.2075 1.37305 24.875C1.37235 29.5426 3.22585 34.0192 6.52581 37.3202C9.82578 40.6211 14.3019 42.476 18.9694 42.4767H18.9747C23.5334 42.4905 27.918 40.7272 31.198 37.5612C34.4779 34.3951 36.3949 30.0755 36.542 25.5191C36.5463 25.4036 36.5277 25.2883 36.4873 25.1799C36.447 25.0715 36.3857 24.9722 36.3069 24.8875C36.2281 24.8028 36.1334 24.7345 36.0282 24.6865C35.923 24.6384 35.8094 24.6116 35.6938 24.6075C35.4618 24.6037 35.2374 24.6898 35.0675 24.8478C34.8975 25.0057 34.7953 25.2233 34.7821 25.4549C34.6501 29.5552 32.9253 33.4426 29.974 36.2921C27.0227 39.1416 23.0771 40.7287 18.9747 40.7168C15.7074 40.7168 12.574 39.4188 10.2636 37.1085C7.95332 34.7982 6.65539 31.6647 6.65539 28.3975C6.65539 25.1302 7.95332 21.9967 10.2636 19.6864C12.574 17.3761 15.7074 16.0781 18.9747 16.0781H34.8138V20.4779C34.8137 20.652 34.8652 20.8222 34.9618 20.967C35.0584 21.1118 35.1958 21.2247 35.3567 21.2914C35.5175 21.3581 35.6944 21.3756 35.8652 21.3417C36.0359 21.3078 36.1928 21.224 36.3159 21.1009ZM18.9747 14.3182C16.6309 14.3182 14.3242 14.9033 12.2638 16.0204C10.2033 17.1376 8.45438 18.7514 7.17557 20.7156C5.89676 22.6798 5.12854 24.9322 4.94059 27.2684C4.75264 29.6047 5.1509 31.9509 6.09926 34.0943C4.40285 31.7276 3.39198 28.939 3.17782 26.035C2.96365 23.1311 3.5545 20.2243 4.88537 17.6345C6.21625 15.0446 8.23559 12.8719 10.7213 11.3553C13.2071 9.83877 16.0629 9.03713 18.9747 9.03854H35.6938C35.9272 9.03854 36.151 8.94583 36.316 8.78081C36.481 8.61579 36.5737 8.39197 36.5737 8.15859V5.00397L43.249 11.6784L36.5737 18.3546V15.1982C36.5737 14.9648 36.481 14.741 36.316 14.576C36.151 14.411 35.9272 14.3182 35.6938 14.3182H18.9747Z" fill="#AAAFB5"/>
</svg>
