<svg width="41" height="44" viewBox="0 0 41 44" fill="none" xmlns="http://www.w3.org/2000/svg">
<path d="M40.1644 23.0261V17.2776C40.1644 17.0382 40.0693 16.8087 39.9 16.6394C39.7307 16.4701 39.5012 16.375 39.2618 16.375C39.0224 16.375 38.7928 16.4701 38.6236 16.6394C38.4543 16.8087 38.3592 17.0382 38.3592 17.2776V22.1235H31.1387C31.0015 21.1523 30.821 20.1878 30.5971 19.2299H35.6515C35.8909 19.2299 36.1205 19.1348 36.2897 18.9655C36.459 18.7962 36.5541 18.5667 36.5541 18.3273V12.5779C36.5541 12.3385 36.459 12.109 36.2897 11.9397C36.1205 11.7704 35.8909 11.6753 35.6515 11.6753C35.4121 11.6753 35.1826 11.7704 35.0133 11.9397C34.844 12.109 34.7489 12.3385 34.7489 12.5779V17.4238H30.1178C29.4095 15.074 28.4376 12.8119 27.2206 10.6807C27.1816 9.5889 26.8878 8.52133 26.3627 7.56331C25.8375 6.6053 25.0956 5.78341 24.1961 5.16331L27.0464 1.45284C27.1186 1.35885 27.1717 1.25155 27.2024 1.13707C27.2332 1.02258 27.2411 0.90316 27.2258 0.785614C27.2104 0.668069 27.172 0.554704 27.1128 0.451991C27.0536 0.349279 26.9748 0.259231 26.8808 0.186989C26.7868 0.114746 26.6795 0.0617244 26.565 0.0309504C26.4505 0.000176453 26.3311 -0.00774705 26.2136 0.00763234C26.096 0.0230117 25.9826 0.0613928 25.8799 0.120584C25.7772 0.179776 25.6872 0.258618 25.6149 0.35261L22.5642 4.33204C21.8114 4.06116 21.0176 3.92194 20.2176 3.92047H19.9468C19.1487 3.92198 18.3567 4.06058 17.6055 4.33024L14.5494 0.35261C14.4772 0.258618 14.3871 0.179776 14.2844 0.120584C14.1817 0.0613928 14.0683 0.0230117 13.9508 0.00763236C13.7134 -0.0234277 13.4734 0.0410886 13.2836 0.186989C13.0937 0.332888 12.9697 0.548221 12.9386 0.785614C12.9075 1.02301 12.972 1.26302 13.1179 1.45284L15.9683 5.16331C15.0688 5.78341 14.3268 6.6053 13.8017 7.56331C13.2765 8.52133 12.9827 9.5889 12.9438 10.6807C11.7098 12.8397 10.7283 15.1335 10.0185 17.5168H5.41542V12.6709C5.41542 12.4315 5.32033 12.2019 5.15106 12.0327C4.9818 11.8634 4.75222 11.7683 4.51285 11.7683C4.27347 11.7683 4.0439 11.8634 3.87464 12.0327C3.70537 12.2019 3.61028 12.4315 3.61028 12.6709V18.4193C3.61028 18.6587 3.70537 18.8883 3.87464 19.0576C4.0439 19.2268 4.27347 19.3219 4.51285 19.3219H9.54648C9.32385 20.2786 9.14333 21.2432 9.00494 22.2156H1.80514V17.3688C1.80514 17.1294 1.71005 16.8998 1.54078 16.7305C1.37152 16.5613 1.14195 16.4662 0.90257 16.4662C0.663193 16.4662 0.433621 16.5613 0.264357 16.7305C0.0950919 16.8998 0 17.1294 0 17.3688L0 23.1181C0 23.3575 0.0950919 23.5871 0.264357 23.7563C0.433621 23.9256 0.663193 24.0207 0.90257 24.0207H8.81179C8.73417 24.9828 8.70438 25.9486 8.71251 26.9152H0.90257C0.663193 26.9152 0.433621 27.0103 0.264357 27.1796C0.0950919 27.3489 0 27.5784 0 27.8178C0 28.0572 0.0950919 28.2868 0.264357 28.456C0.433621 28.6253 0.663193 28.7204 0.90257 28.7204H8.7793C8.84157 29.6888 8.93634 30.6546 9.08707 31.6149H0.90257C0.663193 31.6149 0.433621 31.71 0.264357 31.8793C0.0950919 32.0485 0 32.2781 0 32.5175L0 38.2687C0 38.508 0.0950919 38.7376 0.264357 38.9069C0.433621 39.0761 0.663193 39.1712 0.90257 39.1712C1.14195 39.1712 1.37152 39.0761 1.54078 38.9069C1.71005 38.7376 1.80514 38.508 1.80514 38.2687V33.4201H9.42463C9.63583 34.3939 9.9039 35.3579 10.2081 36.3083H4.51285C4.27347 36.3083 4.0439 36.4034 3.87464 36.5726C3.70537 36.7419 3.61028 36.9715 3.61028 37.2108V42.962C3.61028 43.2014 3.70537 43.431 3.87464 43.6002C4.0439 43.7695 4.27347 43.8646 4.51285 43.8646C4.75222 43.8646 4.9818 43.7695 5.15106 43.6002C5.32033 43.431 5.41542 43.2014 5.41542 42.962V38.1188H10.8435C11.4095 39.8333 12.5027 41.325 13.967 42.3812C15.4313 43.4373 17.1918 44.0039 18.9973 44H21.1635C24.5273 44 27.7594 42.1759 29.3516 38.0268H34.7489V42.8718C34.7489 43.1111 34.844 43.3407 35.0133 43.51C35.1826 43.6792 35.4121 43.7743 35.6515 43.7743C35.8909 43.7743 36.1205 43.6792 36.2897 43.51C36.459 43.3407 36.5541 43.1111 36.5541 42.8718V37.1242C36.5541 36.8848 36.459 36.6553 36.2897 36.486C36.1205 36.3167 35.8909 36.2216 35.6515 36.2216H29.9843C30.2857 35.2658 30.5502 34.3028 30.7587 33.328H38.3592V38.1739C38.3592 38.4133 38.4543 38.6428 38.6236 38.8121C38.7928 38.9814 39.0224 39.0765 39.2618 39.0765C39.5012 39.0765 39.7307 38.9814 39.9 38.8121C40.0693 38.6428 40.1644 38.4133 40.1644 38.1739V32.4245C40.1644 32.1851 40.0693 31.9556 39.9 31.7863C39.7307 31.617 39.5012 31.522 39.2618 31.522H31.0899C31.2379 30.5616 31.3318 29.595 31.3914 28.6274H39.2618C39.5012 28.6274 39.7307 28.5323 39.9 28.3631C40.0693 28.1938 40.1644 27.9642 40.1644 27.7248C40.1644 27.4855 40.0693 27.2559 39.9 27.0866C39.7307 26.9174 39.5012 26.8223 39.2618 26.8223H31.4527C31.4588 25.8553 31.4224 24.8902 31.3435 23.9268H39.2618C39.5008 23.9268 39.7301 23.832 39.8994 23.6631C40.0686 23.4942 40.1639 23.2651 40.1644 23.0261ZM19.9468 5.72561H20.2176C21.4424 5.72697 22.6277 6.15925 23.5658 6.94671C24.5039 7.73418 25.1351 8.82662 25.3487 10.0327H14.8148C15.0284 8.82647 15.6597 7.73391 16.598 6.94642C17.5363 6.15894 18.7218 5.72676 19.9468 5.72561ZM19.1796 42.1948H18.9991C9.61778 42.1948 9.12317 24.6426 12.5078 15.7947H19.1796V42.1948ZM13.2678 13.9895C13.6035 13.2597 13.9697 12.5424 14.3662 11.8378H25.7963C26.1929 12.5418 26.559 13.2591 26.8948 13.9895H13.2678ZM21.1653 42.1948H20.9847V15.7947H27.6583C31.0322 24.6146 30.5592 42.1948 21.1671 42.1948H21.1653Z" fill="#AAAFB5"/>
</svg>
