<svg width="44" height="44" viewBox="0 0 44 44" fill="none" xmlns="http://www.w3.org/2000/svg">
<rect width="44" height="44" rx="22" fill="#F0C6CB" fill-opacity="0.25"/>
<g clip-path="url(#clip0_4341_243)">
<path d="M22.0393 12.011C17.0214 12.2499 13.0616 16.4288 13.0769 21.4524C13.0815 22.9824 13.4509 24.4266 14.1025 25.7027L13.102 30.5589C13.0479 30.8216 13.2848 31.0517 13.5458 30.9899L18.3044 29.8624C19.527 30.4714 20.9001 30.8232 22.3534 30.8454C27.4822 30.9237 31.7587 26.8513 31.9185 21.7245C32.0899 16.2289 27.5542 11.7483 22.0393 12.011ZM27.7174 26.6406C26.3238 28.0342 24.4709 28.8017 22.5 28.8017C21.346 28.8017 20.2412 28.5427 19.2161 28.0321L18.5535 27.702L15.6359 28.3932L16.2501 25.4121L15.9236 24.7727C15.3914 23.7306 15.1216 22.6036 15.1216 21.4232C15.1216 19.4524 15.8891 17.5995 17.2827 16.2059C18.6638 14.8247 20.5469 14.0447 22.5002 14.0447C24.471 14.0448 26.3238 14.8123 27.7174 16.2058C29.111 17.5994 29.8785 19.4523 29.8785 21.4231C29.8785 23.3764 29.0985 25.2595 27.7174 26.6406Z" fill="#D93A4D"/>
<path d="M27.0733 23.4666L25.248 22.9425C25.008 22.8737 24.7496 22.9417 24.5748 23.1199L24.1284 23.5747C23.9402 23.7664 23.6546 23.828 23.4055 23.7272C22.542 23.3778 20.7257 21.7629 20.2619 20.9551C20.128 20.7221 20.1502 20.4308 20.3145 20.2181L20.7042 19.714C20.8569 19.5165 20.8891 19.2512 20.7881 19.0228L20.0202 17.286C19.8362 16.87 19.3046 16.7489 18.9573 17.0426C18.4479 17.4735 17.8435 18.1282 17.77 18.8536C17.6404 20.1324 18.1889 21.7446 20.2629 23.6803C22.659 25.9166 24.5777 26.2121 25.827 25.9094C26.5356 25.7378 27.1018 25.0498 27.4592 24.4864C27.7029 24.1023 27.5105 23.5922 27.0733 23.4666Z" fill="#D93A4D"/>
</g>
<defs>
<clipPath id="clip0_4341_243">
<rect width="19" height="19" fill="white" transform="translate(13 12)"/>
</clipPath>
</defs>
</svg>
