<svg width="44" height="44" viewBox="0 0 44 44" fill="none" xmlns="http://www.w3.org/2000/svg">
<path d="M43.12 8.8C43.3534 8.8 43.5772 8.70729 43.7423 8.54225C43.9073 8.37722 44 8.15339 44 7.92V0.88C44 0.646609 43.9073 0.422778 43.7423 0.257746C43.5772 0.092714 43.3534 0 43.12 0H36.08C35.8466 0 35.6228 0.092714 35.4577 0.257746C35.2927 0.422778 35.2 0.646609 35.2 0.88V3.52H8.8V0.88C8.8 0.646609 8.70729 0.422778 8.54225 0.257746C8.37722 0.092714 8.15339 0 7.92 0H0.88C0.646609 0 0.422778 0.092714 0.257746 0.257746C0.092714 0.422778 0 0.646609 0 0.88V7.92C0 8.15339 0.092714 8.37722 0.257746 8.54225C0.422778 8.70729 0.646609 8.8 0.88 8.8H3.52V35.2H0.88C0.646609 35.2 0.422778 35.2927 0.257746 35.4577C0.092714 35.6228 0 35.8466 0 36.08V43.12C0 43.3534 0.092714 43.5772 0.257746 43.7423C0.422778 43.9073 0.646609 44 0.88 44H7.92C8.15339 44 8.37722 43.9073 8.54225 43.7423C8.70729 43.5772 8.8 43.3534 8.8 43.12V40.48H35.2V43.12C35.2 43.3534 35.2927 43.5772 35.4577 43.7423C35.6228 43.9073 35.8466 44 36.08 44H43.12C43.3534 44 43.5772 43.9073 43.7423 43.7423C43.9073 43.5772 44 43.3534 44 43.12V36.08C44 35.8466 43.9073 35.6228 43.7423 35.4577C43.5772 35.2927 43.3534 35.2 43.12 35.2H40.48V8.8H43.12ZM36.96 1.76H42.24V7.04H36.96V1.76ZM1.76 1.76H7.04V7.04H1.76V1.76ZM7.04 42.24H1.76V36.96H7.04V42.24ZM42.24 42.24H36.96V36.96H42.24V42.24ZM38.72 35.2H36.08C35.8466 35.2 35.6228 35.2927 35.4577 35.4577C35.2927 35.6228 35.2 35.8466 35.2 36.08V38.72H8.8V36.08C8.8 35.8466 8.70729 35.6228 8.54225 35.4577C8.37722 35.2927 8.15339 35.2 7.92 35.2H5.28V8.8H7.92C8.15339 8.8 8.37722 8.70729 8.54225 8.54225C8.70729 8.37722 8.8 8.15339 8.8 7.92V5.28H35.2V7.92C35.2 8.15339 35.2927 8.37722 35.4577 8.54225C35.6228 8.70729 35.8466 8.8 36.08 8.8H38.72V35.2Z" fill="#AAAFB5"/>
<path d="M33.3942 11.1619C33.3359 10.9868 33.224 10.8344 33.0742 10.7264C32.9245 10.6183 32.7446 10.5601 32.56 10.56H11.44C11.2552 10.56 11.0751 10.6181 10.9252 10.7261C10.7754 10.8341 10.6633 10.9866 10.6049 11.1619L9.72488 13.8019C9.68836 13.9117 9.67383 14.0276 9.6821 14.143C9.69037 14.2584 9.7213 14.3711 9.77311 14.4745C9.82491 14.578 9.89659 14.6702 9.98404 14.7459C10.0715 14.8217 10.173 14.8795 10.2828 14.916C10.3926 14.9525 10.5085 14.9671 10.6239 14.9588C10.7393 14.9505 10.8519 14.9196 10.9554 14.8678C11.0588 14.816 11.1511 14.7443 11.2268 14.6568C11.3026 14.5694 11.3604 14.4679 11.3969 14.3581L12.0745 12.32H19.36V31.68H17.6C17.3666 31.68 17.1428 31.7727 16.9777 31.9377C16.8127 32.1028 16.72 32.3266 16.72 32.56C16.72 32.7934 16.8127 33.0172 16.9777 33.1823C17.1428 33.3473 17.3666 33.44 17.6 33.44H26.4C26.6334 33.44 26.8572 33.3473 27.0223 33.1823C27.1873 33.0172 27.28 32.7934 27.28 32.56C27.28 32.3266 27.1873 32.1028 27.0223 31.9377C26.8572 31.7727 26.6334 31.68 26.4 31.68H24.64V12.32H31.9255L32.6058 14.3581C32.6423 14.4679 32.7001 14.5694 32.7758 14.6568C32.8516 14.7443 32.9438 14.816 33.0473 14.8678C33.1507 14.9196 33.2633 14.9505 33.3787 14.9588C33.4942 14.9671 33.6101 14.9525 33.7198 14.916C33.8296 14.8795 33.9311 14.8217 34.0186 14.7459C34.106 14.6702 34.1777 14.578 34.2295 14.4745C34.2813 14.3711 34.3123 14.2584 34.3205 14.143C34.3288 14.0276 34.3143 13.9117 34.2778 13.8019L33.3942 11.1619ZM22.88 31.68H21.12V12.32H22.88V31.68Z" fill="#AAAFB5"/>
</svg>
